<svg id="Layer_1" data-name="Layer 1" xmlns="http://www.w3.org/2000/svg" viewBox="0 0 150 150"><defs><style>.cls-1,.cls-2{fill:#48b0a2;}.cls-1{fill-rule:evenodd;}</style></defs><title>family members</title><path class="cls-1" d="M94.38,40.39H55.62a3.84,3.84,0,0,0-3.84,3.84v27a3.84,3.84,0,0,0,3.84,3.84h5.64v25.57a3.84,3.84,0,0,0,3.84,3.84H84.89a3.84,3.84,0,0,0,3.84-3.84V75.08h5.64a3.84,3.84,0,0,0,3.84-3.84v-27A3.84,3.84,0,0,0,94.38,40.39Z"/><circle class="cls-2" cx="75" cy="19.66" r="15.25"/><path class="cls-1" d="M139.52,81.48H100.76a3.84,3.84,0,0,0-3.84,3.84v27a3.84,3.84,0,0,0,3.84,3.84h5.64v25.57a3.84,3.84,0,0,0,3.84,3.84H130a3.84,3.84,0,0,0,3.84-3.84V116.18h5.64a3.84,3.84,0,0,0,3.84-3.84v-27A3.84,3.84,0,0,0,139.52,81.48Z"/><circle class="cls-2" cx="120.14" cy="60.75" r="15.25"/><path class="cls-1" d="M49.24,81.48H10.48a3.84,3.84,0,0,0-3.84,3.84v27a3.84,3.84,0,0,0,3.84,3.84h5.64v25.57A3.84,3.84,0,0,0,20,145.59H39.76a3.84,3.84,0,0,0,3.84-3.84V116.18h5.64a3.84,3.84,0,0,0,3.84-3.84v-27A3.84,3.84,0,0,0,49.24,81.48Z"/><circle class="cls-2" cx="29.86" cy="60.75" r="15.25"/></svg>