<svg id="Layer_1" data-name="Layer 1" xmlns="http://www.w3.org/2000/svg" viewBox="0 0 150 150"><defs><style>.cls-1,.cls-2{fill:#48b0a2;}.cls-1{fill-rule:evenodd;}</style></defs><title>poluchatel</title><path class="cls-1" d="M99.66,49.34H50.34a4.89,4.89,0,0,0-4.89,4.89V88.61a4.89,4.89,0,0,0,4.89,4.89h7.18V126a4.89,4.89,0,0,0,4.89,4.89H87.59A4.89,4.89,0,0,0,92.48,126V93.5h7.18a4.89,4.89,0,0,0,4.89-4.89V54.23A4.89,4.89,0,0,0,99.66,49.34Z"/><circle class="cls-2" cx="75" cy="22.96" r="19.41"/><path class="cls-2" d="M75,146.45c-30.14,0-52.88-10.86-52.88-25.25,0-8.52,8-16.05,21.87-20.67a4.59,4.59,0,0,1,2.9,8.72c-9.47,3.15-15.59,7.84-15.59,12,0,6.71,16.62,16.07,43.69,16.07s43.69-9.36,43.69-16.07c0-4.12-6.12-8.81-15.59-12a4.59,4.59,0,0,1,2.9-8.72c13.9,4.62,21.87,12.15,21.87,20.67C127.88,135.59,105.14,146.45,75,146.45Z"/></svg>