<svg id="Layer_1" data-name="Layer 1" xmlns="http://www.w3.org/2000/svg" viewBox="0 0 150 150"><defs><style>.cls-1{fill:#48b0a2;}</style></defs><title>target</title><circle class="cls-1" cx="75" cy="75" r="16.63"/><path class="cls-1" d="M143.23,70.68h-12a56.52,56.52,0,0,0-52-52v-12H70.68v12a56.52,56.52,0,0,0-52,52h-12v8.63h12a56.52,56.52,0,0,0,52,52v12h8.63v-12a56.52,56.52,0,0,0,52-52h12Zm-20.62,0h-6.08A41.83,41.83,0,0,0,79.32,33.47V27.39A47.88,47.88,0,0,1,122.61,70.68ZM75,108.12A33.12,33.12,0,1,1,108.12,75,33.16,33.16,0,0,1,75,108.12ZM70.68,27.39v6.08A41.83,41.83,0,0,0,33.47,70.68H27.39A47.88,47.88,0,0,1,70.68,27.39ZM27.39,79.32h6.08a41.83,41.83,0,0,0,37.22,37.22v6.08A47.89,47.89,0,0,1,27.39,79.32Zm51.93,43.3v-6.08a41.83,41.83,0,0,0,37.21-37.22h6.08A47.89,47.89,0,0,1,79.32,122.61Z"/></svg>