<svg id="Layer_1" data-name="Layer 1" xmlns="http://www.w3.org/2000/svg" viewBox="0 0 150 150"><defs><style>.cls-1{fill:#48b0a2;}</style></defs><title>samarianin</title><path class="cls-1" d="M136.4,115c-5.07,1.12-23.73,7-28.11,6.53S85.78,118.82,83.21,117s-7.43-12.06-7.43-12.06,4.79-1.55,13.91,2.7,14.58,6,18.57,5.26,7.11-6.5,2.26-10.12C106.7,99.94,80.25,88.43,74.63,84.9c-4.77-3-20.91-15.22-32.26-15.31s-36,6.27-36,6.27v38.94s18.23-9.27,29.56-6.7,25.26,20.76,35.59,22.84,31.83,5.7,39.41,4.57,27-9,30.24-11.48C146.53,119.84,142.07,113.75,136.4,115Z"/><path class="cls-1" d="M103.35,88.17l32-32a24.51,24.51,0,0,0-32.14-36.86A24.51,24.51,0,0,0,71.12,56.14ZM79.27,29.63a13,13,0,0,1,18.34,0l5.64,5.64,5.64-5.64A13,13,0,0,1,127.24,48L103.33,71.88,79.27,48a13,13,0,0,1,0-18.35Z"/></svg>