<svg id="Layer_1" data-name="Layer 1" xmlns="http://www.w3.org/2000/svg" viewBox="0 0 150 150"><defs><style>.cls-1{fill:#48b0a2;}</style></defs><title>time</title><path class="cls-1" d="M75,7.56A67.44,67.44,0,1,0,142.44,75,67.52,67.52,0,0,0,75,7.56Zm0,114.26A46.82,46.82,0,1,1,121.82,75,46.87,46.87,0,0,1,75,121.82Z"/><path class="cls-1" d="M79,39.4H71a2.87,2.87,0,0,0-2.87,2.87V70.64a1.54,1.54,0,0,1-1.88,1.51L48.82,68.22a2.87,2.87,0,0,0-3.44,2.17l-1.76,7.8a2.87,2.87,0,0,0,2.17,3.44l30,6.76a5,5,0,0,0,6.1-4.88V42.27A2.87,2.87,0,0,0,79,39.4Z"/></svg>